<?xml version="1.0" encoding="UTF-8"?>
<svg width="120" height="120" viewBox="0 0 120 120" fill="none" xmlns="http://www.w3.org/2000/svg">
  <polygon points="90,14 99,34 85,57 67,74 49,88 28,101 31,80 42,57 57,40 74,24" fill="#120C18"/>

  <polygon points="90,14 99,34 87,44 74,24" fill="#FF8A3D"/>
  <polygon points="87,44 76,58 64,68 67,74 85,57" fill="#FF4D6D"/>
  <polygon points="64,68 49,88 28,101 43,74" fill="#7C4DFF"/>

  <path d="M74 24C64 35 56 47 49 60C43 71 38 81 34 92" stroke="#F8F5FF" stroke-width="2.4" stroke-linecap="round"/>

  <path d="M80 29L70 43" stroke="#06060E" stroke-width="1.7" stroke-linecap="round" opacity="0.55"/>
  <path d="M73 43L62 58" stroke="#06060E" stroke-width="1.6" stroke-linecap="round" opacity="0.52"/>
  <path d="M64 57L52 72" stroke="#06060E" stroke-width="1.5" stroke-linecap="round" opacity="0.48"/>
</svg>
