<?xml version="1.0" encoding="UTF-8"?>
<svg width="120" height="120" viewBox="0 0 120 120" fill="none" xmlns="http://www.w3.org/2000/svg">
  <defs>
    <linearGradient id="l1-accent" x1="96" y1="8" x2="22" y2="90" gradientUnits="userSpaceOnUse">
      <stop offset="0%" stop-color="#4f8ef7"/>
      <stop offset="55%" stop-color="#9b6dff"/>
      <stop offset="100%" stop-color="#22d3ee"/>
    </linearGradient>
  </defs>

  <!-- Left-facing angular macaw silhouette -->
  <path d="
    M 78 10
    C 98 10 108 22 108 42
    C 108 58 102 70 92 77
    C 84 83 74 87 62 88
    C 50 89 38 86 28 79
    C 18 72 12 62 12 49
    C 12 33 20 21 34 14
    C 44 9 56 8 68 9
    Z"
    fill="#080910"/>

  <!-- Beak cutout (left-facing) -->
  <path d="M 10 42 C 18 36 24 36 30 40 C 23 47 23 55 30 62 C 23 64 17 62 12 56 C 9 51 8 46 10 42 Z" fill="#080910"/>

  <!-- White face mask via negative panel -->
  <path d="M 58 24 C 70 24 80 31 82 42 C 84 52 80 62 72 67 C 64 72 53 72 45 66 C 38 60 35 49 38 40 C 42 30 49 24 58 24 Z" fill="#F5F7FF"/>

  <!-- Eye -->
  <circle cx="57" cy="39" r="7" fill="#0A0B12"/>
  <circle cx="57" cy="39" r="2.1" fill="#F5F7FF"/>

  <!-- Beak interior contrast -->
  <path d="M 31 40 C 45 39 53 44 54 52 C 55 60 48 67 37 69 C 29 70 23 68 19 63 C 27 58 27 48 19 43 C 22 41 26 40 31 40 Z" fill="#F5F7FF"/>
  <path d="M 33 55 C 42 56 47 60 48 66 C 39 69 32 68 26 63 C 29 60 31 58 33 55 Z" fill="#0A0B12"/>

  <!-- Crest / feather slashes -->
  <path d="M 78 13 C 70 19 66 26 64 35" stroke="url(#l1-accent)" stroke-width="3" stroke-linecap="round"/>
  <path d="M 84 16 C 76 24 72 32 70 42" stroke="url(#l1-accent)" stroke-width="2.4" stroke-linecap="round" opacity="0.8"/>

  <!-- Neck feather blades -->
  <path d="M 63 88 C 58 101 49 109 36 114" stroke="#0A0B12" stroke-width="7" stroke-linecap="round"/>
  <path d="M 56 86 C 50 98 42 106 30 112" stroke="#0A0B12" stroke-width="6.2" stroke-linecap="round"/>
  <path d="M 48 83 C 42 95 33 103 22 107" stroke="#0A0B12" stroke-width="5.5" stroke-linecap="round"/>

  <!-- Accent orbit ring -->
  <path d="M 92 21 C 101 30 104 42 101 54" stroke="url(#l1-accent)" stroke-width="2" opacity="0.6" fill="none"/>
</svg>
